# xmcd
#
# Track frame offsets:
# 180
# 13639
# 27996
# 49821
# 66100
# 81695
# 98777
# 112436
# 129908
# 146236
# 156831
#
# Disc length: 2286 seconds
#
# Revision: 1
# Processed by: cddbd v1.5.1PL2 Copyright (c) Steve Scherf et al.
# Submitted via: Audio-CD-Archiv 4.00.531
#
DISCID=9f08ec0b
DTITLE=Southern Pacific Line - Let Me Talk To You
DYEAR=2005
DGENRE=country
TTITLE0=Southern Pacific Line - Mr. Right
TTITLE1=Southern Pacific Line - Let's Go To Vegas
TTITLE2=Southern Pacific Line - What About Love
TTITLE3=Southern Pacific Line - Forever And Always
TTITLE4=Southern Pacific Line - It Matters To Me
TTITLE5=Southern Pacific Line - Even The Man In The Moon Is Crying
TTITLE6=Southern Pacific Line - Watermelon Crawl
TTITLE7=Southern Pacific Line - Let Me Talk To You
TTITLE8=Southern Pacific Line - This House
TTITLE9=Southern Pacific Line - Hot Rod
TTITLE10=Southern Pacific Line - I Feel Lucky
EXTD=
EXTT0=
EXTT1=
EXTT2=
EXTT3=
EXTT4=
EXTT5=
EXTT6=
EXTT7=
EXTT8=
EXTT9=
EXTT10=
PLAYORDER=
